<?xml version="1.0" encoding="UTF-8" standalone="no"?>
<!-- Created with Inkscape (http://www.inkscape.org/) -->

<svg
   xmlns:dc="http://purl.org/dc/elements/1.1/"
   xmlns:cc="http://creativecommons.org/ns#"
   xmlns:rdf="http://www.w3.org/1999/02/22-rdf-syntax-ns#"
   xmlns:svg="http://www.w3.org/2000/svg"
   xmlns="http://www.w3.org/2000/svg"
   xmlns:sodipodi="http://sodipodi.sourceforge.net/DTD/sodipodi-0.dtd"
   xmlns:inkscape="http://www.inkscape.org/namespaces/inkscape"
   width="728"
   height="99"
   viewBox="0 0 192.61666 26.193751"
   version="1.1"
   id="svg8"
   inkscape:version="0.92.4 5da689c313, 2019-01-14"
   sodipodi:docname="yeti_logo.svg"
   inkscape:export-filename="/home/austreng/yeti_software/yeti_host/assets/static/images/yeti_logo_deep_blue.png"
   inkscape:export-xdpi="96.312973"
   inkscape:export-ydpi="96.312973">
  <defs
     id="defs2" />
  <sodipodi:namedview
     id="base"
     pagecolor="#ffffff"
     bordercolor="#666666"
     borderopacity="1.0"
     inkscape:pageopacity="0.0"
     inkscape:pageshadow="2"
     inkscape:zoom="1.837"
     inkscape:cx="357.39369"
     inkscape:cy="30.338601"
     inkscape:document-units="mm"
     inkscape:current-layer="layer1"
     showgrid="false"
     inkscape:snap-grids="false"
     inkscape:snap-to-guides="false"
     inkscape:window-width="1920"
     inkscape:window-height="1025"
     inkscape:window-x="1920"
     inkscape:window-y="27"
     inkscape:window-maximized="1"
     units="px">
    <inkscape:grid
       type="xygrid"
       id="grid4532" />
  </sodipodi:namedview>
  <metadata
     id="metadata5">
    <rdf:RDF>
      <cc:Work
         rdf:about="">
        <dc:format>image/svg+xml</dc:format>
        <dc:type
           rdf:resource="http://purl.org/dc/dcmitype/StillImage" />
        <dc:title></dc:title>
      </cc:Work>
    </rdf:RDF>
  </metadata>
  <g
     inkscape:label="Layer 1"
     inkscape:groupmode="layer"
     id="layer1"
     transform="translate(0,-270.80623)">
    <g
       id="g4877"
       transform="matrix(0.20528641,0,0,0.20528641,-7.3622265,265.32437)">
      <g
         style="fill:#3d49f1;fill-opacity:1;stroke:none"
         id="g4756">
        <circle
           style="fill:#0069d9;fill-opacity:1;stroke:none;stroke-width:0.96499997;stroke-linecap:round;stroke-linejoin:round;stroke-miterlimit:4;stroke-dasharray:none;stroke-opacity:1"
           id="path4707"
           cx="100.54166"
           cy="90.625"
           r="55.5625" />
        <path
           inkscape:transform-center-y="-47.657706"
           inkscape:transform-center-x="-25.050808"
           sodipodi:nodetypes="cccc"
           inkscape:connector-curvature="0"
           id="path4719"
           d="m 100.54167,35.062501 c 0,0 23.8125,-7.9375 50.27083,15.875 -8.27235,0.04331 -11.90625,1.322916 -11.90625,1.322916 z"
           style="fill:#0069d9;fill-opacity:1;stroke:none;stroke-width:0.26458332px;stroke-linecap:butt;stroke-linejoin:miter;stroke-opacity:1" />
        <path
           style="fill:#0069d9;fill-opacity:1;stroke:none;stroke-width:0.26458332px;stroke-linecap:butt;stroke-linejoin:miter;stroke-opacity:1"
           d="m 139.89691,51.293883 c 0,0 22.45064,11.22532 24.32152,46.772165 -5.88006,-5.81881 -9.35443,-7.483547 -9.35443,-7.483547 z"
           id="path4733"
           inkscape:connector-curvature="0"
           sodipodi:nodetypes="cccc"
           inkscape:transform-center-x="-51.431393"
           inkscape:transform-center-y="-16.0042" />
        <path
           inkscape:transform-center-y="25.05081"
           inkscape:transform-center-x="-47.657708"
           sodipodi:nodetypes="cccc"
           inkscape:connector-curvature="0"
           id="path4735"
           d="m 156.24794,90.599561 c 0,0 7.9375,23.812499 -15.875,50.270829 -0.0433,-8.27235 -1.32291,-11.90625 -1.32291,-11.90625 z"
           style="fill:#0069d9;fill-opacity:1;stroke:none;stroke-width:0.26458332px;stroke-linecap:butt;stroke-linejoin:miter;stroke-opacity:1" />
        <path
           style="fill:#0069d9;fill-opacity:1;stroke:none;stroke-width:0.26458332px;stroke-linecap:butt;stroke-linejoin:miter;stroke-opacity:1"
           d="m 140.01656,129.9548 c 0,0 -11.22532,22.45064 -46.772168,24.32152 5.818817,-5.88005 7.483548,-9.35443 7.483548,-9.35443 z"
           id="path4737"
           inkscape:connector-curvature="0"
           sodipodi:nodetypes="cccc"
           inkscape:transform-center-x="-16.004199"
           inkscape:transform-center-y="51.431395" />
        <path
           inkscape:transform-center-y="47.657705"
           inkscape:transform-center-x="25.050811"
           sodipodi:nodetypes="cccc"
           inkscape:connector-curvature="0"
           id="path4739"
           d="m 100.71088,146.30583 c 0,0 -23.812499,7.9375 -50.270828,-15.875 8.272348,-0.0433 11.906248,-1.32292 11.906248,-1.32292 z"
           style="fill:#0069d9;fill-opacity:1;stroke:none;stroke-width:0.26458332px;stroke-linecap:butt;stroke-linejoin:miter;stroke-opacity:1" />
        <path
           style="fill:#0069d9;fill-opacity:1;stroke:none;stroke-width:0.26458332px;stroke-linecap:butt;stroke-linejoin:miter;stroke-opacity:1"
           d="m 61.355644,130.07444 c 0,0 -22.45064,-11.22531 -24.321523,-46.772159 5.880051,5.818816 9.354434,7.483543 9.354434,7.483543 z"
           id="path4741"
           inkscape:connector-curvature="0"
           sodipodi:nodetypes="cccc"
           inkscape:transform-center-x="51.431395"
           inkscape:transform-center-y="16.004196" />
        <path
           inkscape:transform-center-y="-25.050813"
           inkscape:transform-center-x="47.657705"
           sodipodi:nodetypes="cccc"
           inkscape:connector-curvature="0"
           id="path4743"
           d="m 45.004615,90.768764 c 0,0 -7.937507,-23.812492 15.874997,-50.270824 0.0433,8.272348 1.32292,11.906247 1.32292,11.906247 z"
           style="fill:#0069d9;fill-opacity:1;stroke:none;stroke-width:0.26458332px;stroke-linecap:butt;stroke-linejoin:miter;stroke-opacity:1" />
        <path
           style="fill:#0069d9;fill-opacity:1;stroke:none;stroke-width:0.26458332px;stroke-linecap:butt;stroke-linejoin:miter;stroke-opacity:1"
           d="m 61.236002,51.413531 c 0,0 11.22531,-22.45064 46.772158,-24.321523 -5.81881,5.880051 -7.48354,9.354434 -7.48354,9.354434 z"
           id="path4745"
           inkscape:connector-curvature="0"
           sodipodi:nodetypes="cccc"
           inkscape:transform-center-x="16.004196"
           inkscape:transform-center-y="-51.431395" />
      </g>
      <g
         transform="matrix(0.71137955,-0.2920087,0.2920087,0.71137955,2.5622365,55.557052)"
         style="fill:#ffffff;fill-opacity:0.18823529;stroke:none"
         id="g4776">
        <circle
           r="55.5625"
           cy="90.625"
           cx="100.54166"
           id="circle4758"
           style="fill:#ffffff;fill-opacity:1;stroke:none;stroke-width:0.96499997;stroke-linecap:round;stroke-linejoin:round;stroke-miterlimit:4;stroke-dasharray:none;stroke-opacity:1" />
        <path
           style="fill:#ffffff;fill-opacity:1;stroke:none;stroke-width:0.26458332px;stroke-linecap:butt;stroke-linejoin:miter;stroke-opacity:1"
           d="m 100.54167,35.062501 c 0,0 23.8125,-7.9375 50.27083,15.875 -8.27235,0.04331 -11.90625,1.322916 -11.90625,1.322916 z"
           id="path4760"
           inkscape:connector-curvature="0"
           sodipodi:nodetypes="cccc"
           inkscape:transform-center-x="-25.050808"
           inkscape:transform-center-y="-47.657706" />
        <path
           inkscape:transform-center-y="-16.0042"
           inkscape:transform-center-x="-51.431393"
           sodipodi:nodetypes="cccc"
           inkscape:connector-curvature="0"
           id="path4762"
           d="m 139.89691,51.293883 c 0,0 22.45064,11.22532 24.32152,46.772165 -5.88006,-5.81881 -9.35443,-7.483547 -9.35443,-7.483547 z"
           style="fill:#ffffff;fill-opacity:1;stroke:none;stroke-width:0.26458332px;stroke-linecap:butt;stroke-linejoin:miter;stroke-opacity:1" />
        <path
           style="fill:#ffffff;fill-opacity:1;stroke:none;stroke-width:0.26458332px;stroke-linecap:butt;stroke-linejoin:miter;stroke-opacity:1"
           d="m 156.24794,90.599561 c 0,0 7.9375,23.812499 -15.875,50.270829 -0.0433,-8.27235 -1.32291,-11.90625 -1.32291,-11.90625 z"
           id="path4764"
           inkscape:connector-curvature="0"
           sodipodi:nodetypes="cccc"
           inkscape:transform-center-x="-47.657708"
           inkscape:transform-center-y="25.05081" />
        <path
           inkscape:transform-center-y="51.431395"
           inkscape:transform-center-x="-16.004199"
           sodipodi:nodetypes="cccc"
           inkscape:connector-curvature="0"
           id="path4766"
           d="m 140.01656,129.9548 c 0,0 -11.22532,22.45064 -46.772168,24.32152 5.818817,-5.88005 7.483548,-9.35443 7.483548,-9.35443 z"
           style="fill:#ffffff;fill-opacity:1;stroke:none;stroke-width:0.26458332px;stroke-linecap:butt;stroke-linejoin:miter;stroke-opacity:1" />
        <path
           style="fill:#ffffff;fill-opacity:1;stroke:none;stroke-width:0.26458332px;stroke-linecap:butt;stroke-linejoin:miter;stroke-opacity:1"
           d="m 100.71088,146.30583 c 0,0 -23.812499,7.9375 -50.270828,-15.875 8.272348,-0.0433 11.906248,-1.32292 11.906248,-1.32292 z"
           id="path4768"
           inkscape:connector-curvature="0"
           sodipodi:nodetypes="cccc"
           inkscape:transform-center-x="25.050811"
           inkscape:transform-center-y="47.657705" />
        <path
           inkscape:transform-center-y="16.004196"
           inkscape:transform-center-x="51.431395"
           sodipodi:nodetypes="cccc"
           inkscape:connector-curvature="0"
           id="path4770"
           d="m 61.355644,130.07444 c 0,0 -22.45064,-11.22531 -24.321523,-46.772159 5.880051,5.818816 9.354434,7.483543 9.354434,7.483543 z"
           style="fill:#ffffff;fill-opacity:1;stroke:none;stroke-width:0.26458332px;stroke-linecap:butt;stroke-linejoin:miter;stroke-opacity:1" />
        <path
           style="fill:#ffffff;fill-opacity:1;stroke:none;stroke-width:0.26458332px;stroke-linecap:butt;stroke-linejoin:miter;stroke-opacity:1"
           d="m 45.004615,90.768764 c 0,0 -7.937507,-23.812492 15.874997,-50.270824 0.0433,8.272348 1.32292,11.906247 1.32292,11.906247 z"
           id="path4772"
           inkscape:connector-curvature="0"
           sodipodi:nodetypes="cccc"
           inkscape:transform-center-x="47.657705"
           inkscape:transform-center-y="-25.050813" />
        <path
           inkscape:transform-center-y="-51.431395"
           inkscape:transform-center-x="16.004196"
           sodipodi:nodetypes="cccc"
           inkscape:connector-curvature="0"
           id="path4774"
           d="m 61.236002,51.413531 c 0,0 11.22531,-22.45064 46.772158,-24.321523 -5.81881,5.880051 -7.48354,9.354434 -7.48354,9.354434 z"
           style="fill:#ffffff;fill-opacity:1;stroke:none;stroke-width:0.26458332px;stroke-linecap:butt;stroke-linejoin:miter;stroke-opacity:1" />
      </g>
      <path
         inkscape:connector-curvature="0"
         id="path4819"
         d="M 95.828683,75.500701 119.33736,75.37081 c 0,0 9.4814,3.247046 9.4814,14.157156 0,10.910094 -8.96187,14.546794 -12.33879,14.546794 -3.37695,0 -4.28611,0.25971 -5.19528,-0.51953 -0.9092,-0.77928 -4.28611,-8.702091 -10.26071,-8.442345 -5.974571,0.25971 -5.714825,-8.831976 -5.714825,-8.831976 z"
         style="fill:#69d9ff;fill-opacity:0;stroke:none;stroke-width:0.95437407px;stroke-linecap:butt;stroke-linejoin:miter;stroke-opacity:1" />
      <path
         inkscape:transform-center-y="5.6171841"
         inkscape:transform-center-x="3.1686995"
         style="fill:#69d9ff;fill-opacity:0;stroke:none;stroke-width:0.95437407px;stroke-linecap:butt;stroke-linejoin:miter;stroke-opacity:1"
         d="M 105.43804,75.500701 81.929361,75.37081 c 0,0 -9.481399,3.247046 -9.481399,14.157156 0,10.910094 8.961871,14.546794 12.338786,14.546794 3.376952,0 4.286117,0.25971 5.195286,-0.51953 0.909201,-0.77928 4.286117,-8.702091 10.260726,-8.442345 5.97456,0.25971 5.71481,-8.831976 5.71481,-8.831976 z"
         id="path4823"
         inkscape:connector-curvature="0" />
      <path
         inkscape:connector-curvature="0"
         id="path4920"
         d="m 111.6946,103.69834 c -0.2259,-0.13899 -1.05153,-1.2158 -1.83475,-2.3929 -2.33595,-3.51072 -4.70339,-5.542459 -7.18062,-6.162408 -0.66432,-0.166254 -0.69094,-0.206772 -0.24806,-0.377631 0.8272,-0.319128 1.90197,-1.545426 2.50297,-2.855851 1.0306,-2.247136 1.17939,-4.036244 0.85961,-10.336072 -0.15963,-3.144801 -0.21885,-5.789313 -0.1316,-5.876692 0.0872,-0.08738 3.30676,-0.158871 7.15449,-0.158871 h 6.99586 l 1.42461,0.862853 c 3.08407,1.867941 5.3982,4.598992 6.62541,7.819074 0.77654,2.037545 0.98268,6.960425 0.38992,9.311919 -1.04677,4.15265 -3.58565,7.287059 -7.44568,9.192199 l -2.21298,1.09223 -3.24423,0.0674 c -1.89484,0.0394 -3.41506,-0.0377 -3.65495,-0.18529 z"
         style="fill:#69d9ff;fill-opacity:0;stroke:none;stroke-width:3.90481687;stroke-linecap:round;stroke-linejoin:round;stroke-miterlimit:4;stroke-dasharray:none;stroke-opacity:1" />
      <path
         inkscape:connector-curvature="0"
         id="path4922"
         d="m 94.90167,152.65085 c 1.594484,-1.65785 4.96902,-5.83569 4.827737,-5.97697 -0.05153,-0.0515 -1.362339,0.0926 -2.912901,0.32041 -3.837747,0.56373 -11.617253,0.37604 -15.22196,-0.36725 -5.648447,-1.1647 -9.836453,-2.61764 -15.201683,-5.27388 -4.70052,-2.32716 -8.621842,-5.00015 -15.252928,-10.39724 -0.450745,-0.36687 -0.270536,-0.40526 2.582271,-0.55012 1.686758,-0.0856 3.955612,-0.28804 5.041898,-0.44977 1.933762,-0.2879 1.962371,-0.30233 1.368078,-0.69016 -9.684952,-6.3203 -17.351295,-17.75433 -20.698769,-30.871345 -0.963824,-3.776723 -1.789321,-8.551629 -2.000268,-11.570104 -0.08104,-1.159658 -0.201186,-2.37099 -0.266984,-2.691849 -0.09377,-0.45728 0.363474,-0.150227 2.115315,1.420487 2.328353,2.08762 5.230798,4.328745 5.394315,4.165229 0.05209,-0.05209 -0.09455,-1.143117 -0.32587,-2.424498 -0.572061,-3.168886 -0.563466,-10.037449 0.01718,-13.731857 0.541788,-3.447152 1.617184,-7.627835 2.761248,-10.734569 2.521825,-6.848073 7.589528,-15.217337 12.695286,-20.966148 l 1.058309,-1.1916 0.0054,2.302791 c 0.0052,2.210985 0.546751,7.278564 0.805541,7.537355 0.06859,0.06859 0.364634,-0.263485 0.657868,-0.737948 1.003171,-1.623167 2.766763,-3.752461 4.927936,-5.949804 7.485933,-7.611263 17.373773,-12.755647 29.075118,-15.127044 3.347082,-0.67832 8.620713,-1.403763 10.204703,-1.403763 h 0.98115 l -2.31427,2.666592 c -1.27285,1.466625 -2.66575,3.177874 -3.09534,3.802775 l -0.78108,1.136184 1.65734,-0.344628 c 2.76648,-0.575264 10.57368,-0.687791 14.04769,-0.202474 10.57115,1.47678 20.6681,6.076919 30.27461,13.793021 l 3.22421,2.589734 -0.99171,0.06021 c -2.60488,0.158159 -7.28079,0.600801 -8.02408,0.759596 l -0.83099,0.177533 2.19529,1.64072 c 11.57435,8.650439 18.86501,22.647828 20.795,39.924469 0.55731,4.988872 0.68307,4.768397 -1.54592,2.710202 -2.09585,-1.935263 -5.47023,-4.601932 -5.6222,-4.443061 -0.0523,0.05469 0.0653,0.88079 0.26143,1.835802 0.52129,2.538772 0.71069,9.171102 0.35074,12.282312 -1.37493,11.88437 -6.81432,23.63739 -15.60222,33.71208 l -0.95639,1.09644 -0.16588,-2.46074 c -0.24609,-3.65057 -0.69024,-7.07968 -0.90638,-6.99778 -0.10457,0.0396 -0.88637,1.02087 -1.73732,2.18052 -1.89136,2.57752 -6.09978,6.79907 -8.86852,8.8962 -8.84864,6.70222 -21.23183,11.13103 -33.170001,11.86315 l -2.232495,0.13692 z m 24.89205,-17.64176 c 10.15166,-6.18195 17.22309,-15.04392 19.82478,-24.84456 l 0.55894,-2.10553 1.70502,3.42256 1.70503,3.42256 0.57662,-1.69911 c 0.75404,-2.2219 1.66878,-5.85571 2.17613,-8.64465 0.55954,-3.07585 0.7561,-9.794721 0.38095,-13.021665 -0.59353,-5.105347 -2.41022,-10.737257 -4.69313,-14.549147 -0.55266,-0.922809 -0.97461,-1.708055 -0.93767,-1.744996 0.11633,-0.116331 3.49218,0.894718 5.1283,1.535908 0.86263,0.338064 1.63282,0.54972 1.71152,0.470345 0.18973,-0.191353 -1.93399,-4.155067 -3.64231,-6.798019 C 137.81061,60.43172 128.66921,53.538692 119.05086,51.422918 l -0.99222,-0.218261 1.61963,-0.909012 c 0.8908,-0.499957 2.38442,-1.255785 3.31917,-1.679618 0.9818,-0.445169 1.60711,-0.863027 1.48069,-0.989451 -0.35529,-0.355289 -6.12877,-1.942226 -9.24343,-2.540709 -2.50169,-0.480702 -3.66571,-0.551934 -8.83465,-0.540637 -6.530572,0.01427 -8.366458,0.27292 -13.031927,1.835996 -2.206333,0.739189 -6.221985,2.630913 -7.494627,3.530624 -0.647538,0.457787 -0.681695,0.459374 -0.673143,0.03127 0.008,-0.399296 1.581333,-5.177353 2.094794,-6.361591 0.148662,-0.342872 -0.401235,-0.152986 -2.2559,0.778993 -8.379975,4.210977 -15.660602,10.907211 -19.938898,18.338459 -1.342325,2.331572 -2.828184,5.986671 -3.395923,8.353712 -0.247718,1.032796 -0.52954,1.878449 -0.626272,1.879228 -0.09673,7.44e-4 -0.905941,-1.457157 -1.798243,-3.23986 -1.875578,-3.747159 -1.589334,-3.855443 -2.98633,1.129705 -3.188129,11.376765 -2.639871,21.98534 1.60484,31.052974 0.52199,1.11509 1.308706,2.55014 1.748257,3.189 l 0.799184,1.16158 -0.836192,-0.18083 c -0.754465,-0.16315 -4.906996,-1.53657 -5.983333,-1.97894 -0.238753,-0.0981 -0.433924,-0.0827 -0.433711,0.0342 7.68e-4,0.42602 3.309233,6.2188 4.654945,8.15035 4.569016,6.55804 10.083211,11.54746 16.241448,14.69577 2.509906,1.28315 6.105163,2.60898 7.961137,2.93584 0.817575,0.14398 0.902574,0.21675 0.603045,0.51628 -0.191772,0.19177 -1.66316,1.00159 -3.269751,1.79959 -1.606591,0.79801 -2.823691,1.51111 -2.704665,1.58468 0.525263,0.32463 6.469481,1.92769 8.854942,2.38804 9.634879,1.85933 19.413353,0.70555 27.202793,-3.20973 0.88071,-0.44268 1.89759,-1.01399 2.25973,-1.26957 0.36213,-0.25558 0.72491,-0.46469 0.80618,-0.46469 0.32146,0 0.10555,0.95884 -0.84448,3.75043 -0.54572,1.60355 -0.99222,2.97985 -0.99222,3.05845 0,0.22193 3.35463,-1.51989 5.82799,-3.02607 z"
         style="fill:#69d9ff;fill-opacity:0;stroke:none;stroke-width:3.90481687;stroke-linecap:round;stroke-linejoin:round;stroke-miterlimit:4;stroke-dasharray:none;stroke-opacity:1" />
      <path
         inkscape:connector-curvature="0"
         id="path4924"
         d="m 85.873506,121.5806 c -0.966594,-1.14873 -1.764901,-5.06373 -1.21076,-5.93772 0.306367,-0.4832 1.923478,-0.79347 2.345556,-0.45003 0.190569,0.15506 0.706859,0.81883 1.147312,1.47504 0.696012,1.03696 0.887204,1.17524 1.460841,1.05659 4.155105,-0.85947 16.404045,-0.86227 21.765265,-0.005 0.94977,0.15188 0.99689,0.12502 1.56977,-0.89427 0.95516,-1.69947 1.31974,-1.96133 2.39352,-1.71916 1.23238,0.27795 1.39893,0.59506 1.23592,2.35315 -0.19307,2.08228 -0.54773,3.21201 -1.28248,4.08521 -0.71577,0.85064 -1.19067,0.91178 -3.13953,0.40417 -3.88388,-1.01163 -17.411236,-1.1687 -21.882446,-0.25409 -3.619702,0.74043 -3.685521,0.73873 -4.402968,-0.11391 z"
         style="fill:#69d9ff;fill-opacity:0;stroke:none;stroke-width:3.90481687;stroke-linecap:round;stroke-linejoin:round;stroke-miterlimit:4;stroke-dasharray:none;stroke-opacity:1" />
      <path
         inkscape:connector-curvature="0"
         id="path4920-7"
         d="m 111.21962,103.53124 c -0.22581,-0.13887 -1.05154,-1.2158 -1.83474,-2.3929 -2.33599,-3.51074 -4.70342,-5.54247 -7.18063,-6.16242 -0.66431,-0.16628 -0.69093,-0.20668 -0.24816,-0.37762 0.82717,-0.31923 1.90194,-1.54546 2.50295,-2.85588 1.03058,-2.24713 1.17937,-4.03623 0.85961,-10.33606 -0.15944,-3.1448 -0.21895,-5.78931 -0.13166,-5.87669 0.0873,-0.0874 3.30676,-0.15886 7.1545,-0.15886 h 6.99587 l 1.42458,0.86286 c 3.08409,1.86793 5.39822,4.59899 6.62542,7.81907 0.77653,2.03754 0.98268,6.96043 0.38992,9.31193 -1.04677,4.15262 -3.58565,7.28703 -7.44566,9.19219 l -2.21299,1.09222 -3.24424,0.0675 c -1.89484,0.0393 -3.41504,-0.0375 -3.65495,-0.18541 z"
         style="fill:#0069d9;fill-opacity:1;stroke:none;stroke-width:3.90481687;stroke-linecap:round;stroke-linejoin:round;stroke-miterlimit:4;stroke-dasharray:none;stroke-opacity:1" />
      <path
         inkscape:transform-center-y="-1.4312953"
         inkscape:transform-center-x="-0.11282287"
         sodipodi:nodetypes="cssccc"
         inkscape:connector-curvature="0"
         id="path4831"
         d="m 115.27212,121.80833 c 0.45975,-0.36471 0.7865,-1.19546 1.17351,-3.64788 0.16463,-1.04281 0.10064,-2.13167 -0.44941,-2.23393 l -1.35861,-0.25254 c -1.05799,0.16833 -1.42204,2.41105 -3.2983,3.9166 z"
         style="fill:#0069d9;fill-opacity:1;stroke:none;stroke-width:0.53360182;stroke-linecap:round;stroke-linejoin:round;stroke-miterlimit:0;stroke-dasharray:none;stroke-opacity:1" />
      <g
         transform="translate(0,0.61106804)"
         id="g4842"
         style="stroke:#0069d9;stroke-opacity:1;fill:none;fill-opacity:1">
        <path
           style="fill:none;fill-opacity:1;stroke:#0069d9;stroke-width:4.16500044;stroke-linecap:round;stroke-linejoin:miter;stroke-miterlimit:4;stroke-dasharray:none;stroke-opacity:1"
           d="m 100.56903,118.36664 c 0,0 10.55021,0.072 13.21476,1.4043"
           id="path4829"
           inkscape:connector-curvature="0"
           inkscape:transform-center-x="-6.6260069"
           inkscape:transform-center-y="-9.9406708" />
        <path
           inkscape:transform-center-y="-9.9406708"
           inkscape:transform-center-x="6.6260051"
           inkscape:connector-curvature="0"
           id="path4838"
           d="m 100.53178,118.36664 c 0,0 -10.550214,0.072 -13.214764,1.4043"
           style="fill:none;fill-opacity:1;stroke:#0069d9;stroke-width:4.16500044;stroke-linecap:round;stroke-linejoin:miter;stroke-miterlimit:4;stroke-dasharray:none;stroke-opacity:1" />
      </g>
      <path
         style="fill:#0069d9;fill-opacity:1;stroke:none;stroke-width:0.53360182;stroke-linecap:round;stroke-linejoin:round;stroke-miterlimit:0;stroke-dasharray:none;stroke-opacity:1"
         d="m 85.873506,121.58058 c -0.45975,-0.36471 -0.7865,-1.19546 -1.17351,-3.64788 -0.16463,-1.04281 -0.10064,-2.13167 0.44941,-2.23393 l 1.35861,-0.25254 c 1.05799,0.16833 1.42204,2.41105 3.2983,3.9166 z"
         id="path4953"
         inkscape:connector-curvature="0"
         sodipodi:nodetypes="cssccc"
         inkscape:transform-center-x="1.9778535"
         inkscape:transform-center-y="-1.4058341" />
      <path
         style="fill:#0069d9;fill-opacity:1;stroke:none;stroke-width:3.90481687;stroke-linecap:round;stroke-linejoin:round;stroke-miterlimit:4;stroke-dasharray:none;stroke-opacity:1"
         d="m 89.412331,103.53124 c 0.22581,-0.13887 1.05154,-1.2158 1.83474,-2.3929 2.33599,-3.51074 4.70342,-5.54247 7.18063,-6.16242 0.66431,-0.16628 0.69093,-0.20668 0.24816,-0.37762 -0.82717,-0.31923 -1.90194,-1.54546 -2.50295,-2.85588 -1.03058,-2.24713 -1.17937,-4.03623 -0.85961,-10.33606 0.15944,-3.1448 0.21895,-5.78931 0.13166,-5.87669 -0.0873,-0.0874 -3.30676,-0.15886 -7.1545,-0.15886 h -6.99587 l -1.42458,0.86286 c -3.08409,1.86793 -5.39822,4.59899 -6.62542,7.81907 -0.77653,2.03754 -0.98268,6.96043 -0.38992,9.31193 1.04677,4.15262 3.58565,7.28703 7.44566,9.19219 l 2.21299,1.09222 3.24424,0.0675 c 1.89484,0.0393 3.41504,-0.0375 3.65495,-0.18541 z"
         id="path4982"
         inkscape:connector-curvature="0"
         inkscape:transform-center-x="2.9916875"
         inkscape:transform-center-y="-3.3608744" />
      <rect
         style="fill:#0069d9;fill-opacity:1;stroke:none;stroke-width:20.28872871;stroke-linecap:round;stroke-linejoin:round;stroke-miterlimit:4;stroke-dasharray:none;stroke-opacity:1"
         id="rect4984"
         width="27.410095"
         height="19.534349"
         x="86.528442"
         y="75.356064"
         ry="0.24805509" />
    </g>
    <flowRoot
       xml:space="preserve"
       id="flowRoot4908"
       style="font-style:normal;font-variant:normal;font-weight:normal;font-stretch:normal;font-size:74.66666412px;line-height:1.25;font-family:Rubik;-inkscape-font-specification:'Rubik, Normal';font-variant-ligatures:normal;font-variant-caps:normal;font-variant-numeric:normal;font-feature-settings:normal;text-align:start;letter-spacing:0px;word-spacing:0px;writing-mode:lr-tb;text-anchor:start;fill:#483e37;fill-opacity:1;stroke:none"
       transform="matrix(0.26458333,0,0,0.26458333,8.8260532,271.17442)"><flowRegion
         id="flowRegion4910"
         style="font-style:normal;font-variant:normal;font-weight:normal;font-stretch:normal;font-size:74.66666412px;font-family:Rubik;-inkscape-font-specification:'Rubik, Normal';font-variant-ligatures:normal;font-variant-caps:normal;font-variant-numeric:normal;font-feature-settings:normal;text-align:start;writing-mode:lr-tb;text-anchor:start;fill:#483e37"><rect
           id="rect4912"
           width="621.66577"
           height="142.62384"
           x="118.12738"
           y="2.1028867"
           style="font-style:normal;font-variant:normal;font-weight:normal;font-stretch:normal;font-size:74.66666412px;font-family:Rubik;-inkscape-font-specification:'Rubik, Normal';font-variant-ligatures:normal;font-variant-caps:normal;font-variant-numeric:normal;font-feature-settings:normal;text-align:start;writing-mode:lr-tb;text-anchor:start;fill:#483e37" /></flowRegion><flowPara
         id="flowPara4914"
         style="font-style:normal;font-variant:normal;font-weight:500;font-stretch:normal;font-size:85.33333588px;font-family:Rubik;-inkscape-font-specification:'Rubik, Medium';font-variant-ligatures:normal;font-variant-caps:normal;font-variant-numeric:normal;font-feature-settings:normal;text-align:start;writing-mode:lr-tb;text-anchor:start;fill:#483e37">Yeti<flowSpan
   style="-inkscape-font-specification:'Rubik, Light';font-family:Rubik;font-weight:300;font-style:normal;font-stretch:normal;font-variant:normal;font-size:85.33333441px;text-anchor:start;text-align:start;writing-mode:lr;font-variant-ligatures:normal;font-variant-caps:normal;font-variant-numeric:normal;font-feature-settings:normal"
   id="flowSpan4988">CAN-FD</flowSpan></flowPara></flowRoot>  </g>
</svg>
